PathFileType	4	(X/Y/Z)	C:\Users\Basilio\Documents\Thesis Gigler\squatting_fais\c3dfiles\040\SJ_pre4\markers_experimental.trc
DataRate	CameraRate	NumFrames	NumMarkers	Units	OrigDataRate	OrigDataStartFrame	OrigNumFrames
200.000000	200.000000	4	63	mm	200.000000	891	1189
Frame#	Time	FHD			LBHD			RBHD			C7			T10			CLAV			LSHO			LUUPA			LMUPA			LDUPA			LLEP			LMEP			LRAD			LUL			LRFIN			RSHO			RUPA1			RMUPA			RDUPA			RLEP			RMEP			RRAD			RUL			RUFIN			LASI			RASI			USACR			LSACR			RSACR			LTHI1			LTHI2			LTHI3			LTHI4			LLFC			LMFC			LTIB1			LTIB2			LTIB3			LTIB4			LLMAL			LMMAL			LHEE			LMT1			LMT2			LMT5			RTHI			RTHI2			RTHI3			RTHI4			RLFC			RMFC			RTIB1			RTIB2			RTIB3			RTIB4			RLMAL			RMMAL			RHEE			RMT1			RMT2			RMT5			*61			*62			
		X1	Y1	Z1	X2	Y2	Z2	X3	Y3	Z3	X4	Y4	Z4	X5	Y5	Z5	X6	Y6	Z6	X7	Y7	Z7	X8	Y8	Z8	X9	Y9	Z9	X10	Y10	Z10	X11	Y11	Z11	X12	Y12	Z12	X13	Y13	Z13	X14	Y14	Z14	X15	Y15	Z15	X16	Y16	Z16	X17	Y17	Z17	X18	Y18	Z18	X19	Y19	Z19	X20	Y20	Z20	X21	Y21	Z21	X22	Y22	Z22	X23	Y23	Z23	X24	Y24	Z24	X25	Y25	Z25	X26	Y26	Z26	X27	Y27	Z27	X28	Y28	Z28	X29	Y29	Z29	X30	Y30	Z30	X31	Y31	Z31	X32	Y32	Z32	X33	Y33	Z33	X34	Y34	Z34	X35	Y35	Z35	X36	Y36	Z36	X37	Y37	Z37	X38	Y38	Z38	X39	Y39	Z39	X40	Y40	Z40	X41	Y41	Z41	X42	Y42	Z42	X43	Y43	Z43	X44	Y44	Z44	X45	Y45	Z45	X46	Y46	Z46	X47	Y47	Z47	X48	Y48	Z48	X49	Y49	Z49	X50	Y50	Z50	X51	Y51	Z51	X52	Y52	Z52	X53	Y53	Z53	X54	Y54	Z54	X55	Y55	Z55	X56	Y56	Z56	X57	Y57	Z57	X58	Y58	Z58	X59	Y59	Z59	X60	Y60	Z60	X61	Y61	Z61	X62	Y62	Z62	X63	Y63	Z63	

892	4.455	-45.39072036743165	1066.136352539063	-894.331726074219	-168.4610290527344	1011.6787109375	-938.880554199219	-224.2794036865235	972.2713623046877	-807.4520263671877	-227.2589416503907	913.8864746093752	-855.501403808594	-470.5473937988282	727.6245727539064	-862.6707763671877	-160.5965881347657	772.3295898437502	-856.4108886718752	-135.0649871826172	822.6170043945315	-1023.882873535156	-246.3217163085938	760.0190429687501	-1191.369262695313	-274.2137451171876	720.7102661132814	-1183.755126953125	-294.5476379394532	738.7700805664064	-1236.96533203125	-347.0202331542969	724.8313598632814	-1280.333740234375	-391.5612182617189	782.692565917969	-1258.159057617188	-557.6568603515626	616.4227294921876	-1099.677124023438	-528.9325561523439	554.5908203125001	-1128.348510742188	-518.0298461914064	610.1880493164064	-1045.150146484375	-143.0521087646485	801.4685058593752	-688.7374267578126	-244.2408294677735	782.1053466796877	-516.3273315429689	-265.3053894042969	737.2261962890626	-511.7062377929689	-285.1408691406251	765.4837036132814	-461.4924621582032	-334.9865722656251	731.6184692382814	-418.5598754882814	-396.3656311035157	786.074157714844	-446.4055786132814	-494.0928649902345	611.5872802734376	-623.5563964843751	-470.0753173828126	545.6195678710939	-592.9318847656251	-449.9419250488282	611.9699707031251	-679.7986450195314	-452.6567382812501	527.4901123046876	-961.7044067382815	-465.941864013672	518.1868896484376	-754.7210083007814	-603.0225830078126	628.5264282226564	-861.253112792969	-626.5721435546876	607.0632934570314	-889.0872802734377	-632.8771972656251	608.4789428710939	-834.9415283203127	-431.2169494628907	436.6438293457032	-1104.061645507813	-354.0671081542969	466.4088439941407	-1126.612182617188	-342.9545288085938	509.9023742675782	-1113.935791015625	-305.6498718261719	433.2098083496095	-1138.7587890625	-191.0918884277344	434.4176635742189	-1163.85498046875	-162.8163146972657	378.1194763183594	-1044.700805664063	-240.9231872558594	237.0828552246094	-1146.954223632813	-326.9306640625001	252.7341766357422	-1172.187377929688	-294.7743225097657	221.1944732666016	-1164.96142578125	-329.1763305664063	148.1779937744141	-1140.440673828125	-432.390106201172	103.430160522461	-1146.13330078125	-383.4236450195313	97.03739166259768	-1071.942993164063	-493.606903076172	47.04706192016602	-1105.266479492188	-272.9225769042969	54.82448577880861	-1129.133544921875	-283.0433044433594	54.43482971191408	-1174.617431640625	-338.3946228027344	32.71475219726563	-1215.232543945313	-425.1392822265626	469.1832580566407	-614.3685913085939	-364.2426757812501	490.5825195312501	-599.1503906250001	-353.3768005371094	520.2157592773439	-609.2004394531251	-299.9752807617188	440.9937438964845	-573.7787475585939	-211.7942352294922	424.0057067871095	-547.7361450195314	-166.1041870117188	396.9137573242189	-677.4246215820314	-242.8086700439454	256.4623718261719	-570.1112060546876	-351.6095581054688	239.8509063720704	-575.2819824218751	-314.8592224121094	210.4535522460938	-574.2638549804689	-321.3692016601563	160.6596374511719	-603.7922363281251	-429.2996826171876	98.90324401855472	-606.0948486328126	-384.9728393554689	96.2437438964844	-683.2985839843751	-485.9871215820314	49.36546325683595	-670.2238159179689	-273.1368713378907	56.67297744750978	-603.2246704101564	-288.3271484375001	58.34078979492189	-565.5519409179689	-344.8950805664063	34.83127212524415	-528.3516235351564	nan	nan	nan	nan	nan	nan	
893	4.46	-44.20085906982423	1061.70751953125	-893.5813598632815	-167.4380798339844	1007.904968261719	-938.2700805664065	-223.2804412841797	968.3537597656252	-807.3654785156252	-226.7360382080079	910.290710449219	-855.231628417969	-470.5169677734376	724.5810546875001	-862.7669677734377	-160.5527954101563	768.3152465820315	-856.3520507812502	-135.0027160644532	819.2314453125002	-1023.779357910156	-245.7869110107422	756.1978759765626	-1191.16455078125	-273.2564392089844	716.4006958007814	-1183.72314453125	-293.6450805664063	734.7995605468751	-1237.039916992188	-346.3555603027344	720.8005981445314	-1280.320190429688	-390.6659545898439	778.770690917969	-1258.505737304688	-557.7145996093751	613.0830078125001	-1100.223999023438	-528.5659179687501	550.7826538085939	-1128.431640625	-518.2360839843751	607.2374267578126	-1045.621215820313	-142.7507476806641	797.2175292968752	-688.8042602539064	-243.7947387695313	777.7310791015627	-516.3236083984376	-265.2146911621094	732.5266723632814	-511.4819335937501	-284.7577819824219	761.0927124023439	-461.4545898437501	-334.6392211914063	727.3576049804689	-418.9596252441407	-396.2182617187501	781.8441162109377	-446.0410461425782	-494.895721435547	608.3639526367189	-623.5744628906251	-470.7943725585939	542.2819213867189	-593.0626831054689	-449.998992919922	608.4581298828126	-679.4113769531251	-453.5529174804689	523.2401123046876	-962.2181396484377	-467.1663208007814	513.3677368164064	-755.3544311523439	-603.0255126953126	625.0935058593751	-861.684509277344	-626.7645874023439	603.9309082031251	-889.6037597656252	-632.9779052734376	605.2160644531251	-835.8133544921877	-430.8003234863282	434.1750793457032	-1103.827880859375	-353.6241455078126	464.0315856933595	-1126.25439453125	-343.2247314453126	508.1667785644532	-1113.728149414063	-305.1880187988282	431.693328857422	-1138.44287109375	-190.6635131835938	433.8641967773439	-1163.406494140625	-162.0729064941407	378.1210937500001	-1043.972412109375	-240.6643524169922	236.8391418457032	-1146.64208984375	-326.8616333007813	252.7134857177735	-1171.969482421875	-294.4802551269532	221.0599365234376	-1164.610595703125	-329.0061950683594	148.0095367431641	-1140.2666015625	-432.4097595214845	103.4739151000977	-1146.028686523438	-383.3377990722657	96.92012786865237	-1071.80810546875	-493.5753479003907	47.05960845947266	-1105.232666015625	-272.9420471191407	54.81372451782228	-1129.134155273438	-283.0045776367188	54.4133987426758	-1174.55810546875	-338.1279602050782	32.49929428100587	-1215.2119140625	-424.9795532226564	467.4999084472657	-614.8460083007814	-364.2386474609376	488.9505920410157	-599.4736328125001	-352.6893920898438	519.2100830078126	-608.8040161132814	-299.6304931640626	440.1172180175782	-574.2789306640626	-211.8165435791016	423.518280029297	-547.9782104492189	-169.4712982177735	393.3923950195314	-677.6893920898439	-242.6182250976563	256.4491882324219	-570.2144775390626	-351.4117126464844	239.831527709961	-575.4360961914064	-314.5968627929688	210.4346618652344	-574.4348754882814	-321.2404785156251	160.635482788086	-603.8372802734376	-429.2593078613282	98.93327331542972	-606.1633911132814	-384.9827880859376	96.14650726318362	-683.3366699218751	-485.9442749023439	49.36401367187501	-670.2319946289064	-273.2161865234376	56.12603759765626	-603.1764526367189	-288.3960266113282	58.43260192871095	-565.5472412109376	-344.8637695312501	34.84111022949219	-528.3294677734376	nan	nan	nan	nan	nan	nan	
894	4.465	-43.18839263916016	1058.123046875	-892.6956787109377	-166.2979278564453	1004.3349609375	-937.7460937500002	-222.2816467285157	964.5648193359377	-807.1583251953127	-225.9945220947266	906.4395751953127	-855.0072021484377	-470.5116271972657	721.7254638671876	-862.8062744140627	-160.39501953125	764.6169433593751	-856.218444824219	-134.7508850097657	815.872985839844	-1023.548706054688	-245.2720489501954	752.5801391601564	-1190.8955078125	-272.8647155761719	712.7046508789064	-1183.542114257813	-293.1151428222657	731.0563354492189	-1237.090209960938	-345.3742065429688	716.9130859375001	-1280.3544921875	-389.8829650878907	774.7974243164065	-1258.799682617188	-557.6853027343751	609.8504028320314	-1100.799438476563	-528.9732666015626	547.6986083984376	-1128.72265625	-518.6896362304689	604.3901367187501	-1046.198974609375	-142.5627899169922	793.3645629882815	-688.8054809570314	-243.6006622314454	773.2359619140627	-516.1031494140626	-264.9420471191407	729.3678588867189	-511.6773986816407	-284.0203247070313	757.6837768554689	-461.2823181152345	-334.4861755371094	722.9288940429689	-418.6346740722657	-395.8289184570314	777.978454589844	-445.8186340332032	-495.5968322753907	605.1638183593751	-623.7025146484376	-471.1588134765626	538.9392089843751	-593.6716308593751	-450.9719848632814	606.3116455078126	-679.4052124023439	-454.2183837890626	519.7127075195314	-963.0422363281252	-467.2068481445314	509.6454467773439	-756.2159423828126	-602.7972412109376	621.9181518554689	-862.0863037109377	-626.6792602539064	600.9564819335939	-889.9194335937502	-632.7115478515626	602.1192626953126	-836.1753540039065	-430.4139404296876	431.8475646972657	-1103.731079101563	-353.3949279785157	462.2493286132814	-1126.115478515625	-343.2966003417969	506.2123107910157	-1113.572509765625	-304.0429992675782	429.452117919922	-1137.931762695313	-190.5859527587891	433.4434204101564	-1163.185302734375	-161.2161102294922	378.0219726562501	-1043.203491210938	-240.3489685058594	236.6391754150391	-1146.426513671875	-326.7070312500001	252.6613464355469	-1171.726806640625	-294.3127441406251	220.9411010742188	-1164.292236328125	-328.8790283203126	147.78759765625	-1140.035522460938	-432.3735656738282	103.5442199707032	-1145.884155273438	-383.3879089355469	96.85482025146487	-1071.677124023438	-493.515350341797	47.05484008789063	-1105.177978515625	-272.8205566406251	54.70571517944337	-1129.13720703125	-282.9697570800782	54.37461471557619	-1174.57666015625	-338.0937805175782	32.47742462158204	-1215.201049804688	-424.6597595214845	465.8788146972657	-615.0881958007814	-363.8348693847657	487.6543884277345	-600.1558227539064	-353.0891113281251	517.0377807617189	-610.3208618164064	-299.3185729980469	439.5495910644532	-574.1441650390626	-211.5538024902344	423.2359924316407	-548.1433105468751	-169.3013458251953	392.2243957519532	-678.0561523437501	-242.7142486572266	255.7145080566407	-570.6549682617189	-351.3645629882813	239.782943725586	-575.5742797851564	-314.2323608398438	210.3476257324219	-574.6942138671876	-321.2060241699219	160.6032104492188	-603.9035644531251	-429.264129638672	98.94002532958987	-606.3282470703126	-384.8831176757814	96.01785278320315	-683.4012451171876	-485.9810485839845	49.36161041259767	-670.2443847656251	-273.2201232910157	56.0868377685547	-603.1885375976564	-288.4022827148438	58.18754196166994	-565.5010375976564	-344.9098815917969	34.83733749389649	-528.3282470703126	nan	nan	nan	nan	nan	nan	
895	4.47	-41.50939941406251	1054.516479492188	-892.0686645507815	-165.5074615478516	1001.20068359375	-937.5759887695315	-221.4791870117188	961.311706542969	-806.804382324219	-225.6803283691407	903.7412719726565	-854.8038330078127	-470.4046936035157	718.9628906250001	-862.8201293945315	-160.2122650146485	761.2905273437501	-856.1475219726565	-134.581298828125	812.6541137695315	-1023.33935546875	-244.8672027587891	749.2214355468751	-1190.794921875	-272.3429260253907	709.2003784179689	-1183.38671875	-292.5998840332032	727.2555541992189	-1236.981079101563	-344.6755065917969	712.9773559570314	-1280.417358398438	-389.2343139648439	771.1217041015627	-1259.118530273438	-558.0057983398439	606.6847534179689	-1101.474609375	-529.1045532226564	544.8057250976564	-1129.126953125	-518.7522583007814	601.6705932617189	-1046.632080078125	-142.5088653564453	789.880798339844	-688.7070312500001	-243.5701446533204	769.4349365234377	-516.0817260742189	-264.7745666503907	725.2046508789064	-511.7785644531251	-284.0081787109376	753.0877075195314	-461.2756958007814	-334.1308593750001	718.5501098632814	-419.1292114257814	-395.7158203125001	774.1643676757815	-445.5593261718751	-496.0425720214845	602.3953247070314	-623.8448486328126	-471.7823181152345	535.9374389648439	-594.4937133789064	-451.6425170898439	603.7069702148439	-679.5985717773439	-457.063934326172	516.5133056640626	-966.7377929687502	-467.3506774902345	504.1604003906251	-759.9579467773439	-602.5561523437501	619.3409423828126	-862.3787231445315	-627.8078002929689	598.3791503906251	-890.8626098632815	-632.7608642578126	599.1776123046876	-836.698913574219	-430.1503295898439	429.617401123047	-1103.66552734375	-353.1966552734376	460.3060302734376	-1126.03076171875	-343.6526489257813	504.7081298828126	-1113.956298828125	-304.4743652343751	428.5158081054689	-1137.740112304688	-190.4635467529297	432.9782714843751	-1162.983642578125	-161.1231079101563	377.2483825683594	-1042.663696289063	-240.0301055908204	236.2252502441407	-1146.257446289063	-326.6591491699219	252.6717834472657	-1171.47216796875	-294.1382751464844	220.8196258544922	-1164.092651367188	-328.7196960449219	147.7362823486328	-1139.992553710938	-432.3574829101564	103.536865234375	-1145.803344726563	-383.3497009277344	96.84357452392581	-1071.5654296875	-493.5050048828126	47.07187271118165	-1105.16064453125	-272.8232727050782	54.69052505493165	-1129.12158203125	-282.9804687500001	54.39112091064455	-1174.566284179688	-338.3537597656251	32.73174667358399	-1215.203369140625	-424.4593200683595	464.422332763672	-615.5878906250001	-363.7486877441407	485.1914062500001	-601.1782836914064	-352.3458251953126	516.8084716796876	-610.5480346679689	-298.7745666503907	438.5074462890626	-574.3641357421876	-210.8609466552735	423.3418579101564	-548.2916870117189	-164.765609741211	394.634490966797	-678.1055908203126	-242.1278839111329	255.9153442382813	-570.3289794921876	-351.0321655273438	239.7152252197266	-575.8916625976564	-314.0677795410157	210.3062438964844	-574.7738037109376	-321.1348266601563	160.513671875	-603.9347534179689	-429.2460021972657	99.12249755859378	-606.3593139648439	-384.7872314453126	95.89791870117189	-683.3896484375001	-485.986785888672	49.34051513671876	-670.2343139648439	-273.1271667480469	56.21717071533205	-603.1721801757814	-288.3664245605469	58.13087081909181	-565.4981689453126	-344.9275207519532	34.80244064331055	-528.3228759765626	nan	nan	nan	nan	nan	nan	
